<?xml version="1.0" standalone="no"?>
<!DOCTYPE svg PUBLIC "-//W3C//DTD SVG 20010904//EN"
 "http://www.w3.org/TR/2001/REC-SVG-20010904/DTD/svg10.dtd">
<svg version="1.0" xmlns="http://www.w3.org/2000/svg"
 width="50px" height="50px" viewBox="0 0 512.000000 512.000000"
 preserveAspectRatio="xMidYMid meet">

<g transform="translate(0.000000,512.000000) scale(0.100000,-0.100000)"
fill="#FE495A" stroke="none">
<path d="M306 5109 c-62 -15 -153 -68 -197 -116 -22 -24 -55 -74 -72 -111
l-32 -67 0 -2256 0 -2255 37 -76 c45 -91 103 -147 196 -191 l67 -32 2256 0
2255 0 76 37 c91 45 147 103 191 196 l32 67 0 2255 0 2255 -32 67 c-44 93
-100 151 -191 196 l-76 37 -2235 2 c-1327 0 -2252 -3 -2275 -8z m4488 -161
c55 -16 138 -99 154 -154 18 -60 18 -4408 0 -4468 -16 -55 -99 -138 -154 -154
-60 -18 -4408 -18 -4468 0 -55 16 -138 99 -154 154 -18 60 -18 4408 0 4468 15
51 99 137 148 153 53 17 4417 18 4474 1z"/>
<path d="M560 4707 c-49 -16 -133 -102 -148 -153 -18 -60 -18 -3928 0 -3988
16 -55 99 -138 154 -154 32 -9 491 -12 1996 -12 2205 0 2013 -7 2091 80 24 26
49 66 55 88 17 57 17 3927 0 3984 -6 22 -31 62 -55 88 -78 87 115 80 -2097 79
-1399 -1 -1971 -4 -1996 -12z m3975 -172 l25 -24 0 -1951 0 -1951 -25 -24 -24
-25 -1951 0 -1951 0 -24 25 -25 24 0 1951 0 1951 25 24 24 25 1951 0 1951 0
24 -25z"/>
<path d="M2400 4154 c-179 -23 -367 -75 -515 -143 -103 -48 -262 -147 -275
-171 -27 -51 11 -120 66 -120 15 0 60 21 103 49 151 96 317 165 491 202 140
30 420 33 550 6 370 -77 673 -266 890 -555 128 -170 214 -362 262 -580 29
-131 31 -414 5 -545 -37 -181 -110 -364 -206 -514 -55 -87 -62 -118 -31 -150
55 -60 103 -38 177 81 104 168 175 347 215 548 32 161 32 433 0 595 -37 184
-107 369 -197 519 -240 396 -619 664 -1071 754 -97 20 -382 34 -464 24z"/>
<path d="M2420 3834 c-208 -27 -407 -101 -580 -217 -96 -64 -273 -241 -337
-337 -95 -142 -163 -302 -199 -470 -26 -119 -26 -381 0 -500 55 -257 169 -466
355 -651 185 -186 394 -300 651 -355 119 -26 381 -26 500 0 257 55 466 169
651 355 186 185 300 394 355 651 26 119 26 381 0 500 -55 257 -169 466 -355
651 -182 182 -382 293 -631 350 -83 19 -331 33 -410 23z m89 -455 c32 -26 77
-24 106 6 24 23 25 29 25 158 l0 134 68 -9 c99 -13 236 -53 330 -98 562 -268
800 -942 528 -1495 -166 -340 -493 -577 -858 -623 l-68 -9 0 134 c0 129 -1
135 -25 158 -32 33 -78 33 -110 0 -24 -23 -25 -29 -25 -158 l0 -134 -67 9
c-229 29 -471 148 -637 312 -440 434 -447 1137 -16 1576 170 173 397 290 628
324 l87 12 5 -139 c5 -131 6 -140 29 -158z"/>
<path d="M1866 2824 c-70 -22 -149 -103 -170 -174 -34 -113 -11 -206 69 -286
41 -41 65 -56 110 -70 219 -63 414 132 351 351 -14 45 -29 69 -70 110 -80 80
-178 103 -290 69z m178 -183 c26 -27 31 -39 31 -81 0 -43 -5 -54 -33 -82 -28
-28 -39 -33 -82 -33 -43 0 -54 5 -82 33 -28 28 -33 39 -33 81 0 52 25 92 70
112 37 16 96 3 129 -30z"/>
<path d="M3066 2824 c-70 -22 -149 -103 -170 -174 -34 -113 -11 -206 69 -286
41 -41 65 -56 110 -70 219 -63 414 132 351 351 -14 45 -29 69 -70 110 -80 80
-178 103 -290 69z m178 -183 c26 -27 31 -39 31 -81 0 -43 -5 -54 -33 -82 -28
-28 -39 -33 -82 -33 -43 0 -54 5 -82 33 -28 28 -33 39 -33 81 0 52 25 92 70
112 37 16 96 3 129 -30z"/>
<path d="M1430 3690 c-20 -20 -26 -63 -14 -95 11 -27 62 -45 97 -33 55 20 67
111 17 138 -31 16 -79 11 -100 -10z"/>
<path d="M1278 3509 c-23 -13 -123 -176 -169 -274 -52 -114 -94 -245 -121
-377 -32 -161 -32 -433 0 -595 63 -318 213 -602 437 -827 227 -229 516 -384
838 -448 162 -32 434 -32 595 0 203 41 377 109 548 215 119 74 141 122 81 177
-32 31 -63 24 -150 -32 -155 -99 -350 -175 -537 -209 -110 -20 -392 -18 -500
4 -366 75 -673 267 -890 555 -128 170 -214 361 -262 580 -29 131 -31 413 -5
546 37 185 107 360 205 513 30 46 52 92 52 107 0 55 -73 94 -122 65z"/>
<path d="M3580 1540 c-12 -12 -20 -33 -20 -55 0 -22 8 -43 20 -55 12 -12 33
-20 55 -20 22 0 43 8 55 20 12 12 20 33 20 55 0 22 -8 43 -20 55 -12 12 -33
20 -55 20 -22 0 -43 -8 -55 -20z"/>
</g>
</svg>
