<?xml version="1.0" standalone="no"?>
<!DOCTYPE svg PUBLIC "-//W3C//DTD SVG 20010904//EN"
 "http://www.w3.org/TR/2001/REC-SVG-20010904/DTD/svg10.dtd">
<svg version="1.0" xmlns="http://www.w3.org/2000/svg"
 width="50px" height="50px" viewBox="0 0 512.000000 512.000000"
 preserveAspectRatio="xMidYMid meet">

<g transform="translate(0.000000,512.000000) scale(0.100000,-0.100000)"
fill="#FE495A" stroke="none">
<path d="M80 4617 c0 -257 4 -447 11 -483 17 -95 78 -210 149 -282 70 -70 123
-104 219 -140 59 -23 85 -26 244 -30 l177 -4 0 -55 c0 -44 5 -58 25 -78 23
-24 29 -25 160 -25 l135 0 0 -1695 0 -1696 25 -24 24 -25 1311 0 1311 0 24 25
25 24 0 576 0 575 215 0 c216 0 216 0 240 -25 23 -22 25 -32 25 -120 l0 -95
-55 0 c-46 0 -60 -4 -80 -25 l-25 -24 0 -431 0 -431 25 -24 24 -25 351 0 351
0 24 25 25 24 0 431 0 431 -25 24 c-20 20 -34 25 -78 25 l-54 0 -5 138 c-4
113 -10 149 -30 203 -34 93 -68 147 -132 212 -63 63 -120 99 -215 136 -63 24
-77 25 -323 29 l-258 4 0 439 0 439 135 0 c131 0 137 1 160 25 21 20 25 34 25
79 l0 54 202 4 c197 3 204 4 254 30 76 40 107 70 145 140 l34 63 3 1003 2
1002 -79 0 -80 0 -3 -602 -3 -603 -34 -63 c-38 -70 -70 -101 -145 -139 -45
-23 -66 -27 -173 -31 l-123 -4 0 56 c0 47 -4 61 -25 81 -23 24 -29 25 -160 25
l-135 0 0 80 0 80 135 0 c131 0 137 1 160 25 21 20 25 34 25 80 l0 55 58 0
c87 0 144 23 195 80 24 26 49 66 55 88 8 27 12 154 12 416 l0 376 -80 0 -80 0
0 -375 0 -376 -25 -24 c-20 -21 -34 -25 -80 -25 l-55 0 0 55 c0 46 -4 60 -25
80 -23 24 -29 25 -160 25 l-135 0 0 135 c0 131 -1 137 -25 160 l-24 25 -1311
0 -1311 0 -24 -25 c-25 -24 -25 -27 -25 -200 l0 -175 -135 0 c-131 0 -137 -1
-160 -25 -21 -20 -25 -34 -25 -80 l0 -55 -135 0 c-131 0 -137 1 -160 25 l-25
24 0 416 0 415 -80 0 -80 0 0 -416 c0 -298 3 -428 12 -458 16 -55 99 -138 154
-154 24 -7 100 -12 178 -12 l136 0 0 -81 0 -81 -167 4 c-164 3 -169 4 -235 35
-93 44 -151 100 -196 191 l-37 76 -3 448 -3 448 -79 0 -80 0 0 -423z m3680
-2217 l0 -2160 -1200 0 -1200 0 0 2160 0 2160 1200 0 1200 0 0 -2160z m320
1760 l0 -80 -80 0 -80 0 0 80 0 80 80 0 80 0 0 -80z m-2880 -240 l0 -240 -80
0 -80 0 0 240 0 240 80 0 80 0 0 -240z m2880 -400 l0 -80 -80 0 -80 0 0 80 0
80 80 0 80 0 0 -80z m635 -437 c-7 -41 -50 -92 -92 -109 -23 -10 -82 -14 -208
-14 l-175 0 0 55 c0 46 -4 60 -25 80 -23 24 -29 25 -160 25 l-135 0 0 80 0 80
135 0 c131 0 137 1 160 25 20 20 25 34 25 78 l0 54 133 5 c146 6 207 22 294
81 l48 32 3 -220 c2 -121 0 -234 -3 -252z m-635 -203 l0 -80 -80 0 -80 0 0 80
0 80 80 0 80 0 0 -80z m412 -1322 c91 -45 148 -104 191 -196 29 -62 32 -77 35
-194 l4 -128 -81 0 -81 0 0 96 c0 121 -13 164 -67 224 -66 74 -94 80 -355 80
l-218 0 0 81 0 81 248 -4 248 -3 76 -37z m388 -998 l0 -320 -240 0 -240 0 0
320 0 320 240 0 240 0 0 -320z"/>
<path d="M1545 4215 l-25 -24 0 -1791 0 -1791 25 -24 24 -25 991 0 991 0 24
25 25 24 0 1791 0 1791 -25 24 -24 25 -991 0 -991 0 -24 -25z m1895 -1815 l0
-1680 -880 0 -880 0 0 1680 0 1680 880 0 880 0 0 -1680z"/>
<path d="M1865 3895 c-25 -24 -25 -26 -25 -215 0 -189 0 -191 25 -215 l24 -25
271 0 271 0 24 25 c25 24 25 26 25 215 0 189 0 191 -25 215 l-24 25 -271 0
-271 0 -24 -25z m455 -215 l0 -80 -160 0 -160 0 0 80 0 80 160 0 160 0 0 -80z"/>
<path d="M2665 3895 c-25 -24 -25 -26 -25 -215 0 -189 0 -191 25 -215 l24 -25
271 0 271 0 24 25 c25 24 25 26 25 215 0 189 0 191 -25 215 l-24 25 -271 0
-271 0 -24 -25z m455 -215 l0 -80 -160 0 -160 0 0 80 0 80 160 0 160 0 0 -80z"/>
<path d="M1865 3255 c-25 -24 -25 -26 -25 -215 0 -189 0 -191 25 -215 l24 -25
271 0 271 0 24 25 c25 24 25 26 25 215 0 189 0 191 -25 215 l-24 25 -271 0
-271 0 -24 -25z m215 -215 l0 -80 -40 0 -40 0 0 80 0 80 40 0 40 0 0 -80z
m240 0 l0 -80 -40 0 -40 0 0 80 0 80 40 0 40 0 0 -80z"/>
<path d="M2665 3255 c-25 -24 -25 -26 -25 -215 0 -189 0 -191 25 -215 l24 -25
271 0 271 0 24 25 c25 24 25 26 25 215 0 189 0 191 -25 215 l-24 25 -271 0
-271 0 -24 -25z m455 -215 l0 -80 -160 0 -160 0 0 80 0 80 160 0 160 0 0 -80z"/>
<path d="M1865 2615 c-25 -24 -25 -26 -25 -215 0 -189 0 -191 25 -215 l24 -25
271 0 271 0 24 25 c25 24 25 26 25 215 0 189 0 191 -25 215 l-24 25 -271 0
-271 0 -24 -25z m455 -215 l0 -80 -160 0 -160 0 0 80 0 80 160 0 160 0 0 -80z"/>
<path d="M2665 2615 c-25 -24 -25 -26 -25 -215 0 -189 0 -191 25 -215 l24 -25
271 0 271 0 24 25 c25 24 25 26 25 215 0 189 0 191 -25 215 l-24 25 -271 0
-271 0 -24 -25z m215 -215 l0 -80 -40 0 -40 0 0 80 0 80 40 0 40 0 0 -80z
m240 0 l0 -80 -40 0 -40 0 0 80 0 80 40 0 40 0 0 -80z"/>
<path d="M1865 1975 c-25 -24 -25 -26 -25 -215 0 -189 0 -191 25 -215 l24 -25
271 0 271 0 24 25 c25 24 25 26 25 215 0 189 0 191 -25 215 l-24 25 -271 0
-271 0 -24 -25z m455 -215 l0 -80 -160 0 -160 0 0 80 0 80 160 0 160 0 0 -80z"/>
<path d="M2665 1975 c-25 -24 -25 -26 -25 -215 0 -189 0 -191 25 -215 l24 -25
271 0 271 0 24 25 c25 24 25 26 25 215 0 189 0 191 -25 215 l-24 25 -271 0
-271 0 -24 -25z m215 -215 l0 -80 -40 0 -40 0 0 80 0 80 40 0 40 0 0 -80z
m240 0 l0 -80 -40 0 -40 0 0 80 0 80 40 0 40 0 0 -80z"/>
<path d="M1865 1335 c-25 -24 -25 -26 -25 -215 0 -189 0 -191 25 -215 l24 -25
271 0 271 0 24 25 c25 24 25 26 25 215 0 189 0 191 -25 215 l-24 25 -271 0
-271 0 -24 -25z m455 -215 l0 -80 -160 0 -160 0 0 80 0 80 160 0 160 0 0 -80z"/>
<path d="M2665 1335 c-25 -24 -25 -26 -25 -215 0 -189 0 -191 25 -215 l24 -25
271 0 271 0 24 25 c25 24 25 26 25 215 0 189 0 191 -25 215 l-24 25 -271 0
-271 0 -24 -25z m455 -215 l0 -80 -160 0 -160 0 0 80 0 80 160 0 160 0 0 -80z"/>
</g>
</svg>
