<svg version="1.0" xmlns="http://www.w3.org/2000/svg"
 width="50px" height="50px" viewBox="0 0 512.000000 512.000000"
 preserveAspectRatio="xMidYMid meet">

<g transform="translate(0.000000,512.000000) scale(0.100000,-0.100000)"
fill="#FE495A" stroke="none">
<path d="M747 5109 c-103 -24 -206 -111 -254 -214 l-28 -60 0 -1565 0 -1565
28 -60 c37 -79 114 -156 191 -191 55 -25 74 -29 198 -32 l137 -4 3 -138 c3
-137 3 -139 33 -176 58 -71 70 -74 337 -74 l238 0 0 -290 0 -290 -280 0 -281
0 -24 -25 c-32 -31 -32 -69 0 -100 l24 -25 316 0 c340 0 359 3 387 53 10 17
14 143 16 544 l3 523 70 0 69 0 -2 -564 -3 -564 -30 -43 c-19 -27 -50 -54 -84
-71 l-53 -28 -855 0 -854 0 -24 -25 c-32 -31 -32 -69 0 -100 l24 -25 854 0
c830 0 857 1 920 20 112 35 192 112 239 231 21 51 22 74 26 417 l4 362 119 0
119 0 0 -468 c0 -269 4 -481 10 -501 23 -82 117 -82 140 0 6 20 10 302 10 696
l0 663 70 0 70 0 0 -663 c0 -394 4 -676 10 -696 23 -82 117 -82 140 0 6 20 10
232 10 501 l0 468 120 0 120 0 0 -312 c0 -172 5 -346 10 -385 15 -118 73 -211
168 -271 100 -64 70 -62 1009 -62 l854 0 24 25 c32 31 32 69 0 100 l-24 25
-854 0 -855 0 -53 28 c-34 17 -65 44 -84 71 l-30 43 -3 564 -2 564 69 0 70 0
3 -522 c2 -402 6 -528 16 -545 31 -55 3 -53 897 -53 l826 0 24 25 c32 31 32
69 0 100 l-24 25 -791 0 -790 0 0 290 0 290 238 0 c267 0 279 3 337 74 30 37
30 39 33 176 l3 138 137 4 c128 3 141 5 202 34 82 39 144 101 184 184 l31 65
3 785 c1 432 0 795 -3 807 -3 13 -19 30 -36 39 -26 13 -36 13 -60 3 -17 -6
-34 -20 -39 -30 -6 -11 -10 -311 -10 -780 0 -571 -3 -772 -12 -803 -8 -25 -31
-59 -58 -86 -27 -27 -61 -50 -86 -58 -55 -16 -3529 -18 -3587 -1 -53 14 -132
93 -146 144 -16 57 -15 3034 0 3090 15 54 91 129 145 144 30 8 534 10 1817 9
l1775 -3 43 -30 c24 -17 57 -50 74 -74 l30 -43 3 -611 c3 -609 3 -611 24 -634
31 -33 80 -31 108 4 21 27 21 29 18 642 l-3 616 -31 65 c-40 83 -102 145 -184
184 l-65 31 -1795 2 c-1023 0 -1811 -3 -1833 -8z m883 -3809 l0 -120 -227 2
-228 3 -3 118 -3 117 231 0 230 0 0 -120z m700 0 l0 -120 -120 0 -120 0 0 120
0 120 120 0 120 0 0 -120z m700 0 l0 -120 -120 0 -120 0 0 120 0 120 120 0
120 0 0 -120z m918 3 l-3 -118 -227 -3 -228 -2 0 120 0 120 230 0 231 0 -3
-117z"/>
<path d="M860 4801 c-19 -10 -48 -35 -65 -55 l-30 -38 -3 -967 -2 -968 21 -26
c26 -34 77 -37 105 -6 18 20 19 55 24 973 l5 951 643 5 644 5 19 24 c26 32 24
67 -6 96 l-24 25 -648 0 c-612 0 -650 -1 -683 -19z"/>
<path d="M2465 4796 c-30 -30 -32 -65 -6 -97 l19 -24 864 -5 863 -5 0 -1395 0
-1395 -1645 0 -1645 0 -5 300 c-3 165 -8 305 -12 311 -4 6 -21 17 -37 23 -24
10 -34 10 -60 -3 -17 -9 -33 -26 -36 -39 -3 -12 -5 -160 -3 -329 l3 -306 30
-38 c17 -20 46 -45 65 -55 33 -18 97 -19 1700 -19 1603 0 1667 1 1700 19 19
10 48 35 65 55 l30 38 3 1426 c2 1376 2 1428 -16 1462 -11 19 -36 48 -56 65
l-38 30 -879 3 -880 2 -24 -24z"/>
<path d="M1273 4502 c-180 -64 -262 -265 -178 -437 31 -64 99 -127 161 -151
l44 -17 0 -89 c0 -81 2 -91 25 -113 13 -14 36 -25 50 -25 14 0 37 11 50 25 23
22 25 32 25 113 l0 89 44 17 c64 24 130 87 163 154 37 75 40 191 6 263 -67
148 -241 224 -390 171z m177 -154 c50 -26 90 -89 90 -143 0 -17 -10 -51 -22
-75 -26 -50 -89 -90 -143 -90 -54 0 -117 40 -142 90 -13 24 -23 58 -23 75 0
54 40 117 90 143 24 12 58 22 75 22 17 0 51 -10 75 -22z"/>
<path d="M2441 4375 c-62 -19 -142 -77 -178 -128 -62 -87 -908 -1564 -926
-1617 -43 -125 -5 -274 95 -373 62 -62 128 -95 212 -108 36 -6 434 -9 961 -7
l900 3 56 23 c179 72 282 291 221 467 -29 84 -911 1602 -960 1652 -65 68 -138
97 -247 100 -57 2 -106 -3 -134 -12z m214 -154 c22 -10 52 -31 67 -47 14 -16
228 -378 475 -804 l448 -775 0 -71 c0 -61 -4 -77 -30 -120 -19 -30 -49 -60
-79 -79 l-49 -30 -927 0 -927 0 -49 30 c-88 55 -134 168 -104 259 16 50 885
1554 918 1590 39 42 98 66 162 66 32 0 71 -8 95 -19z"/>
<path d="M2567 3844 c-24 -13 -513 -651 -547 -713 -15 -29 -8 -92 15 -127 27
-41 72 -54 195 -54 60 0 110 -3 110 -8 0 -4 -29 -75 -65 -157 -70 -163 -79
-208 -48 -272 36 -77 148 -111 224 -67 23 13 109 118 257 314 330 438 326 430
284 509 -31 57 -70 71 -199 71 -62 0 -113 3 -113 6 0 3 30 75 66 160 60 140
66 159 62 208 -5 63 -33 107 -82 130 -42 20 -122 20 -159 0z m93 -147 c0 -8
-34 -92 -76 -188 -105 -239 -105 -239 -89 -277 17 -39 27 -42 202 -45 l142 -2
-225 -300 c-205 -273 -254 -330 -254 -294 0 7 38 101 84 208 46 108 85 203 86
211 5 32 -1 51 -20 70 -18 18 -33 20 -175 20 l-155 0 227 305 c126 167 234
304 241 305 6 0 12 -6 12 -13z"/>
<path d="M25 425 c-14 -13 -25 -36 -25 -50 0 -14 11 -37 25 -50 l24 -25 361 0
361 0 24 25 c14 13 25 36 25 50 0 14 -11 37 -25 50 l-24 25 -361 0 -361 0 -24
-25z"/>
</g>
</svg>
