<svg version="1.0" xmlns="http://www.w3.org/2000/svg"
 width="50px" height="50px" viewBox="0 0 512.000000 512.000000"
 preserveAspectRatio="xMidYMid meet">

<g transform="translate(0.000000,512.000000) scale(0.100000,-0.100000)"
fill="#FE495A" stroke="none">
<path d="M0 4895 l0 -225 484 0 c527 0 594 -5 722 -56 184 -74 351 -238 427
-420 39 -91 50 -141 56 -249 l6 -100 75 0 75 0 -3 80 c-16 413 -291 755 -697
867 -76 21 -104 22 -537 26 l-458 3 0 75 0 75 463 -4 c495 -4 502 -5 664 -61
273 -93 517 -322 630 -589 50 -118 75 -228 82 -357 l6 -115 75 0 75 0 -3 95
c-21 600 -480 1096 -1082 1170 -47 5 -299 10 -572 10 l-488 0 0 -225z"/>
<path d="M2335 5108 c-3 -7 -4 -294 -3 -638 l3 -625 75 0 75 0 3 563 2 562 70
0 70 0 2 -562 3 -563 75 0 75 0 0 635 0 635 -223 3 c-173 2 -224 0 -227 -10z"/>
<path d="M4046 5109 c-321 -42 -627 -219 -820 -475 -153 -205 -239 -446 -248
-694 l-3 -95 75 0 75 0 6 115 c10 192 67 365 175 527 127 191 328 348 539 420
160 55 168 56 663 60 l462 4 0 -75 0 -76 -409 0 c-511 0 -592 -10 -764 -96
-314 -157 -506 -452 -519 -799 l-3 -80 75 0 75 0 6 100 c6 108 17 158 56 249
75 179 237 340 417 415 134 56 197 61 732 61 l484 0 0 225 0 225 -502 -1
c-277 -1 -534 -5 -572 -10z"/>
<path d="M0 4286 l0 -225 398 -3 397 -3 56 -26 c75 -35 130 -87 165 -154 16
-30 34 -53 39 -51 6 2 36 12 68 22 39 12 57 23 57 34 0 24 -65 129 -108 174
-48 50 -129 102 -200 129 -53 19 -81 21 -389 25 l-333 3 0 75 0 74 305 0 c238
0 323 -3 383 -16 224 -45 411 -210 488 -430 15 -43 28 -80 29 -82 3 -3 135 25
141 30 7 8 -36 138 -64 193 -84 167 -239 317 -397 385 -146 62 -155 63 -612
68 l-423 3 0 -225z"/>
<path d="M4288 4500 c-306 -52 -556 -270 -647 -564 -12 -38 -19 -71 -17 -74 6
-5 138 -33 141 -30 1 2 14 39 29 82 77 220 264 385 488 430 60 13 145 16 383
16 l305 0 0 -74 0 -75 -332 -3 c-322 -3 -335 -4 -393 -27 -74 -29 -148 -77
-197 -128 -42 -44 -108 -149 -108 -173 0 -11 18 -22 58 -34 31 -10 62 -20 67
-23 6 -2 19 16 30 39 25 58 104 134 173 166 l57 27 398 3 397 3 0 225 0 224
-392 -1 c-216 -1 -414 -5 -440 -9z"/>
<path d="M0 1810 l0 -1810 2560 0 2560 0 0 1810 0 1810 -245 0 -245 0 0 -75 0
-75 170 0 170 0 0 -1660 0 -1660 -2410 0 -2410 0 0 1660 0 1660 2165 0 2165 0
0 75 0 75 -2240 0 -2240 0 0 -1810z"/>
<path d="M340 1810 l0 -1390 265 0 266 0 -3 73 -3 72 -187 3 -188 2 0 1240 0
1240 2070 0 2070 0 0 -1240 0 -1240 -1805 0 -1805 0 0 -75 0 -75 1880 0 1880
0 0 1390 0 1390 -2220 0 -2220 0 0 -1390z"/>
<path d="M1642 2738 l3 -73 75 0 75 0 3 73 3 72 -81 0 -81 0 3 -72z"/>
<path d="M1942 2738 l3 -73 75 0 75 0 3 73 3 72 -81 0 -81 0 3 -72z"/>
<path d="M2242 2738 l3 -73 615 0 615 0 3 73 3 72 -621 0 -621 0 3 -72z"/>
<path d="M1050 2100 l0 -260 260 0 260 0 0 260 0 260 -260 0 -260 0 0 -260z
m370 0 l0 -110 -110 0 -110 0 0 110 0 110 110 0 110 0 0 -110z"/>
<path d="M2300 2080 l0 -260 260 0 260 0 0 260 0 260 -260 0 -260 0 0 -260z
m370 0 l0 -110 -110 0 -110 0 0 110 0 110 110 0 110 0 0 -110z"/>
<path d="M3550 2070 l0 -260 260 0 260 0 0 260 0 260 -260 0 -260 0 0 -260z
m370 0 l0 -110 -110 0 -110 0 0 110 0 110 110 0 110 0 0 -110z"/>
<path d="M870 1405 l0 -245 95 0 95 0 0 -140 0 -140 245 0 245 0 0 140 0 140
100 0 100 0 0 245 0 245 -440 0 -440 0 0 -245z m730 0 l0 -95 -100 0 -100 0 0
-140 0 -140 -95 0 -95 0 0 140 0 140 -95 0 -95 0 0 95 0 95 290 0 290 0 0 -95z"/>
<path d="M2120 1405 l0 -245 95 0 95 0 0 -140 0 -140 250 0 250 0 0 140 0 140
95 0 95 0 0 245 0 245 -440 0 -440 0 0 -245z m730 0 l0 -95 -95 0 -95 0 0
-140 0 -140 -100 0 -100 0 0 140 0 140 -95 0 -95 0 0 95 0 95 290 0 290 0 0
-95z"/>
<path d="M3370 1405 l0 -245 100 0 100 0 0 -140 0 -140 245 0 245 0 0 140 0
140 95 0 95 0 0 245 0 245 -440 0 -440 0 0 -245z m730 0 l0 -95 -95 0 -95 0 0
-140 0 -140 -95 0 -95 0 0 140 0 140 -100 0 -100 0 0 95 0 95 290 0 290 0 0
-95z"/>
</g>
</svg>
