<svg version="1.0" xmlns="http://www.w3.org/2000/svg"
 width="50px" height="50px" viewBox="0 0 512.000000 512.000000"
 preserveAspectRatio="xMidYMid meet">

<g transform="translate(0.000000,512.000000) scale(0.100000,-0.100000)"
fill="#FE495A" stroke="none">
<path d="M1075 5029 c-142 -24 -270 -92 -381 -203 -90 -90 -143 -175 -182
-294 -22 -67 -26 -94 -26 -212 0 -118 4 -145 26 -212 39 -119 92 -204 182
-294 90 -89 174 -142 294 -183 l77 -26 1360 -5 c1090 -4 1368 -8 1400 -19 302
-100 552 -442 665 -914 52 -217 64 -329 64 -587 0 -174 -4 -265 -17 -350 -66
-428 -210 -757 -426 -970 -98 -97 -204 -159 -312 -185 -93 -21 -2468 -23
-2581 -1 -159 31 -286 96 -405 209 -115 110 -186 230 -229 387 -22 81 -25 270
-5 357 l13 61 64 -53 c35 -30 76 -61 93 -69 20 -11 32 -26 36 -48 19 -91 69
-222 105 -275 42 -63 99 -103 146 -103 42 1 106 33 136 68 l26 31 39 -38 c76
-76 170 -77 245 -1 l38 38 38 -38 c75 -75 169 -75 244 0 l38 38 38 -38 c75
-75 169 -75 244 0 l38 38 38 -38 c76 -76 169 -75 246 2 40 40 41 40 66 -4 14
-23 91 -58 130 -58 39 0 116 35 130 58 26 46 26 46 65 4 71 -80 168 -82 244
-6 l45 45 25 -32 c28 -36 92 -68 135 -69 102 -1 194 135 246 363 l22 97 77 78
c88 89 140 174 178 287 24 71 27 95 27 215 -1 119 -4 145 -27 215 -37 113 -90
197 -179 290 -43 44 -78 84 -78 90 0 5 -11 53 -25 106 -27 108 -62 194 -102
252 -32 45 -98 87 -139 87 -43 -1 -107 -33 -136 -69 l-24 -32 -40 39 c-77 77
-170 78 -246 2 l-38 -38 -42 43 c-74 73 -173 71 -242 -5 l-36 -40 -38 39 c-73
77 -168 77 -244 1 l-38 -38 -38 38 c-75 75 -169 75 -244 0 l-38 -38 -38 38
c-75 75 -169 75 -244 0 l-38 -38 -38 38 c-75 76 -169 75 -245 -1 l-39 -38 -26
31 c-30 35 -94 67 -136 68 -47 0 -104 -40 -146 -103 -35 -52 -85 -182 -104
-272 -5 -22 -22 -40 -67 -70 -125 -82 -234 -227 -278 -367 -29 -90 -23 -78
-103 -184 -113 -148 -197 -338 -235 -532 -23 -117 -23 -347 0 -464 107 -544
531 -950 1077 -1033 143 -22 2452 -22 2586 0 152 24 319 91 449 178 418 281
708 802 801 1442 25 168 25 562 0 730 -56 386 -174 708 -361 990 -197 297
-440 496 -719 589 -170 57 -152 56 -1515 56 -955 0 -1263 3 -1295 12 -86 26
-166 136 -166 228 0 92 80 202 166 228 31 9 309 12 1153 12 l1112 0 24 25 c21
20 25 34 25 80 l0 55 200 0 200 0 0 80 0 80 -200 0 -200 0 0 55 c0 46 -4 60
-25 80 l-24 25 -1133 -1 c-623 -1 -1155 -5 -1183 -10z m2205 -229 l0 -80
-1088 -2 -1088 -3 -76 -37 c-91 -45 -147 -103 -191 -196 -29 -61 -32 -76 -32
-163 0 -90 2 -99 37 -171 45 -91 103 -147 196 -191 l67 -32 1320 -5 c1316 -5
1320 -5 1396 -27 281 -79 513 -260 704 -547 170 -256 286 -580 336 -946 18
-125 18 -515 0 -640 -103 -746 -492 -1326 -992 -1478 -138 -42 -171 -43 -1449
-39 -1095 3 -1232 5 -1290 20 -235 59 -405 152 -560 307 -159 159 -263 354
-312 585 -16 78 -16 333 0 410 29 135 126 375 151 375 5 0 11 -17 15 -37 3
-21 17 -64 30 -97 l25 -58 -29 -87 c-41 -121 -53 -216 -47 -351 12 -256 116
-476 309 -655 140 -131 332 -221 518 -245 59 -7 472 -10 1330 -8 l1245 3 87
31 c343 123 620 497 752 1019 53 205 70 358 70 625 0 267 -17 420 -70 625
-124 490 -389 868 -697 998 -141 59 -87 57 -1498 57 -869 0 -1315 3 -1355 11
-94 17 -213 81 -289 155 -270 268 -195 724 148 893 45 22 105 44 132 49 29 6
507 10 1123 11 l1072 1 0 -80z m-2192 -1921 l33 -66 -25 -129 c-43 -222 -51
-323 -51 -609 1 -280 12 -401 55 -616 18 -89 19 -100 5 -140 -17 -47 -55 -109
-67 -109 -17 0 -62 111 -88 215 -51 199 -64 338 -64 660 0 220 4 320 17 415
35 251 100 459 141 447 6 -1 26 -32 44 -68z m320 0 l33 -66 -25 -129 c-43
-222 -51 -323 -51 -609 1 -280 12 -401 55 -616 18 -86 18 -101 6 -137 -16 -43
-57 -112 -68 -112 -18 0 -70 136 -92 240 -50 235 -60 337 -60 630 0 213 4 302
17 395 21 136 62 335 79 380 19 50 50 96 62 93 6 -2 26 -33 44 -69z m320 0
l33 -66 -25 -129 c-43 -222 -51 -323 -51 -609 1 -280 12 -401 55 -616 18 -86
18 -101 6 -137 -16 -43 -57 -112 -68 -112 -18 0 -70 136 -92 240 -50 235 -60
337 -60 630 0 213 4 302 17 395 21 136 62 335 79 380 19 50 50 96 62 93 6 -2
26 -33 44 -69z m320 0 l33 -66 -25 -129 c-43 -222 -51 -323 -51 -609 1 -280
12 -401 55 -616 18 -86 18 -101 6 -137 -16 -43 -57 -112 -68 -112 -18 0 -70
136 -92 240 -50 235 -60 337 -60 630 0 213 4 302 17 395 21 136 62 335 79 380
19 50 50 96 62 93 6 -2 26 -33 44 -69z m320 0 l33 -66 -25 -129 c-43 -222 -51
-323 -51 -609 1 -280 12 -401 55 -616 18 -86 18 -101 6 -137 -16 -43 -57 -112
-68 -112 -18 0 -70 136 -92 240 -50 235 -60 337 -60 630 0 213 4 302 17 395
21 136 62 335 79 380 19 50 50 96 62 93 6 -2 26 -33 44 -69z m320 0 l33 -66
-25 -129 c-42 -221 -51 -323 -51 -609 0 -281 13 -418 56 -620 15 -72 17 -96 8
-125 -13 -39 -60 -120 -71 -120 -18 0 -70 137 -92 240 -50 235 -60 337 -60
630 0 213 4 302 17 395 21 136 62 335 79 380 19 50 50 96 62 93 6 -2 26 -33
44 -69z m316 12 c35 -66 36 -92 3 -271 -66 -366 -61 -796 13 -1155 11 -53 17
-109 14 -123 -9 -37 -51 -119 -65 -128 -51 -31 -134 284 -159 600 -28 354 6
775 81 1001 33 100 54 138 72 132 7 -2 25 -27 41 -56z m301 37 c9 -13 30 -67
47 -121 l31 -98 -25 -47 c-51 -94 -78 -294 -78 -582 0 -288 27 -488 78 -582
l25 -47 -32 -98 c-17 -54 -40 -109 -51 -123 l-20 -25 -20 23 c-11 13 -33 65
-49 115 -108 339 -120 989 -26 1382 31 132 71 225 96 225 4 0 15 -10 24 -22z
m237 -483 c90 -101 133 -219 133 -365 0 -154 -47 -275 -147 -381 l-52 -53 -7
28 c-36 132 -37 620 -3 803 5 29 8 31 23 20 10 -6 33 -30 53 -52z m-2813 -121
c-11 -149 -8 -453 7 -599 l5 -60 -40 45 c-91 102 -136 223 -136 370 0 110 13
166 60 260 24 48 105 154 112 147 2 -3 -1 -76 -8 -163z"/>
</g>
</svg>
