<svg version="1.0" xmlns="http://www.w3.org/2000/svg"
 width="50px" height="50px" viewBox="0 0 512.000000 512.000000"
 preserveAspectRatio="xMidYMid meet">

<g transform="translate(0.000000,512.000000) scale(0.100000,-0.100000)"
fill="#FE495A" stroke="none">
<path d="M2518 5106 c-31 -23 -38 -65 -38 -222 l0 -154 -49 0 c-33 0 -56 -6
-72 -19 l-24 -19 -3 -619 -3 -618 -57 108 c-78 147 -169 272 -282 389 -105
109 -130 119 -175 73 -42 -41 -33 -66 57 -163 238 -255 386 -546 443 -869 23
-133 29 -123 -73 -123 l-87 0 -17 98 c-51 296 -216 603 -440 818 -144 138
-295 241 -491 335 -105 50 -106 50 -96 77 6 15 20 51 31 80 11 28 24 52 29 52
22 0 240 -112 339 -174 58 -36 115 -66 128 -66 13 0 34 11 47 25 26 25 31 54
15 84 -24 46 -382 245 -532 296 -58 19 -58 19 -85 -1 -16 -12 -36 -41 -45 -65
-9 -24 -21 -43 -26 -42 -5 1 -71 29 -146 63 -75 33 -146 60 -157 60 -27 0 -69
-44 -69 -72 0 -43 28 -65 172 -128 79 -35 145 -65 147 -67 3 -2 -3 -28 -14
-59 -22 -64 -14 -102 25 -120 360 -172 481 -247 631 -394 196 -192 336 -448
384 -703 19 -102 21 -97 -20 -97 -22 0 -43 -8 -55 -20 -20 -20 -20 -33 -20
-1024 l0 -1005 26 -20 c15 -12 33 -21 40 -21 26 0 62 23 73 47 8 17 11 295 11
958 l0 935 519 0 520 0 3 -171 c3 -166 4 -171 27 -190 30 -25 76 -24 101 1 19
19 20 33 20 245 0 212 -1 226 -20 245 -12 12 -33 20 -55 20 -41 0 -39 -5 -20
97 48 255 188 511 384 703 150 147 271 222 631 394 39 18 47 56 25 120 -11 31
-17 57 -14 59 2 2 65 30 139 62 145 64 180 89 180 130 0 31 -41 75 -69 75 -11
0 -82 -27 -157 -60 -75 -34 -141 -62 -146 -63 -5 -1 -17 18 -26 42 -9 24 -29
53 -45 65 -27 20 -27 20 -85 1 -31 -11 -127 -54 -212 -97 -249 -124 -419 -246
-598 -432 -125 -131 -215 -253 -294 -403 l-57 -108 -3 618 -3 619 -24 19 c-16
13 -39 19 -72 19 l-49 0 0 154 c0 193 -14 235 -80 235 -14 0 -33 -5 -42 -13z
m120 -1378 l-3 -853 -75 0 -75 0 -3 853 -2 852 80 0 80 0 -2 -852z m1340 550
c11 -29 25 -65 31 -80 10 -27 9 -27 -97 -78 -191 -91 -347 -198 -491 -335
-222 -212 -388 -521 -438 -814 l-18 -101 -87 0 c-102 0 -96 -10 -73 123 82
468 360 873 790 1153 89 58 329 184 352 184 6 0 20 -24 31 -52z"/>
<path d="M3110 2162 l-30 -30 0 -991 0 -991 -519 0 -520 0 -3 221 c-3 218 -3
221 -27 240 -30 25 -72 24 -99 -1 -22 -20 -22 -26 -22 -295 l0 -274 26 -20
c26 -21 35 -21 644 -21 609 0 618 0 644 21 l26 20 0 1053 c0 990 -1 1054 -17
1069 -10 8 -30 19 -45 22 -22 6 -33 1 -58 -23z"/>
</g>
</svg>
