<svg version="1.0" xmlns="http://www.w3.org/2000/svg"
 width="50px" height="50px" viewBox="0 0 512.000000 512.000000"
 preserveAspectRatio="xMidYMid meet">

<g transform="translate(0.000000,512.000000) scale(0.100000,-0.100000)"
fill="#FE495A" stroke="none">
<path d="M2042 5040 c-183 -105 -194 -119 -200 -244 l-5 -91 -75 -131 c-70
-124 -77 -132 -131 -162 -31 -17 -69 -45 -86 -62 l-30 -31 -3 -184 c-3 -151 0
-189 12 -214 18 -33 61 -68 122 -99 36 -18 51 -38 118 -155 76 -135 76 -135
76 -209 0 -57 5 -84 23 -118 20 -40 37 -54 162 -127 180 -105 194 -107 299
-54 l81 41 157 0 157 0 78 -41 c66 -35 83 -40 117 -34 35 5 217 102 300 158
43 30 66 89 66 176 0 73 0 74 76 208 67 117 82 137 118 155 61 31 104 66 122
99 12 25 15 63 12 214 l-3 184 -30 31 c-16 17 -52 43 -81 59 -28 16 -65 43
-82 60 -17 17 -37 31 -46 31 -30 0 -65 -23 -76 -50 -22 -54 26 -118 128 -169
l42 -21 0 -138 0 -137 -58 -32 c-76 -42 -85 -53 -183 -223 l-84 -145 -5 -90
-5 -90 -60 -35 c-33 -20 -85 -50 -115 -67 l-55 -31 -65 39 -65 39 -205 0 -205
0 -65 -39 -65 -39 -55 31 c-30 17 -82 47 -115 67 l-60 37 -5 89 -5 89 -84 145
c-96 167 -111 185 -186 225 l-55 30 0 135 0 136 64 37 c73 42 75 44 182 227
l79 135 3 91 4 90 115 68 116 67 61 -38 61 -38 215 0 215 0 61 38 61 38 116
-67 115 -68 4 -94 c3 -84 5 -96 27 -113 31 -25 76 -24 102 2 19 19 21 30 18
138 -5 155 -11 163 -202 271 -131 75 -146 81 -188 77 -30 -2 -67 -16 -106 -40
l-61 -37 -160 0 -161 0 -61 37 c-40 23 -78 38 -108 40 -44 4 -57 -1 -190 -77z"/>
<path d="M2420 4551 c-118 -38 -212 -121 -268 -239 -36 -75 -37 -80 -37 -192
0 -109 2 -119 32 -183 36 -76 116 -166 181 -204 140 -82 324 -82 464 0 65 38
145 128 181 204 30 64 32 74 32 183 0 109 -2 119 -32 182 -59 126 -140 201
-261 244 -84 30 -209 32 -292 5z m265 -155 c142 -66 210 -231 158 -382 -23
-67 -110 -154 -177 -177 -117 -40 -231 -14 -317 72 -71 72 -94 132 -87 235 8
114 69 203 173 252 70 33 180 33 250 0z"/>
<path d="M828 3645 c-127 -73 -148 -98 -148 -178 -1 -57 -6 -70 -53 -150 -41
-68 -64 -95 -102 -120 -76 -49 -86 -78 -83 -224 3 -139 12 -159 89 -203 34
-21 55 -45 96 -116 47 -81 52 -95 53 -151 0 -79 19 -102 145 -174 117 -67 147
-71 219 -30 52 29 63 31 151 31 87 0 100 -3 153 -31 76 -41 107 -36 229 38
120 72 136 93 139 175 2 56 8 73 52 148 40 66 61 91 96 112 78 47 87 71 84
225 -3 148 -8 158 -93 209 -58 34 -140 178 -136 241 2 51 -27 121 -58 140
-116 72 -199 113 -230 113 -20 0 -57 -13 -88 -30 -48 -28 -61 -30 -148 -30
-86 0 -99 3 -138 27 -24 15 -61 28 -87 30 -40 4 -56 -2 -142 -52z m367 -150
c133 0 142 1 186 26 l47 26 70 -39 70 -39 -1 -53 c-1 -47 5 -64 58 -156 70
-122 92 -150 139 -175 l36 -20 0 -80 0 -80 -48 -26 c-42 -23 -55 -40 -117
-149 -62 -111 -69 -129 -68 -175 l1 -52 -63 -36 c-35 -21 -69 -37 -74 -37 -5
0 -32 12 -58 26 -46 24 -54 25 -188 22 -125 -3 -144 -5 -176 -25 -20 -13 -42
-23 -49 -23 -7 0 -38 16 -70 35 l-57 35 -5 57 c-5 48 -17 78 -74 176 -58 100
-76 122 -116 147 l-48 30 0 79 c0 72 2 80 21 86 42 14 90 69 150 176 48 86 63
123 68 167 l6 57 63 36 63 37 47 -27 c45 -25 54 -26 187 -26z"/>
<path d="M1073 3299 c-70 -27 -146 -97 -180 -167 -24 -50 -28 -69 -28 -147 0
-107 22 -163 95 -235 72 -73 128 -95 235 -95 78 0 97 4 147 28 208 102 253
374 89 538 -96 95 -234 126 -358 78z m207 -148 c59 -32 93 -83 98 -149 6 -90
-32 -154 -111 -187 -64 -27 -149 -13 -201 33 -29 26 -56 92 -56 140 0 45 25
106 56 134 56 50 151 63 214 29z"/>
<path d="M3548 3638 c-93 -53 -111 -67 -128 -104 -14 -27 -20 -58 -19 -87 4
-63 -78 -207 -136 -241 -85 -51 -90 -61 -93 -209 -3 -125 -2 -134 20 -167 13
-19 43 -45 66 -58 32 -18 53 -42 92 -109 45 -76 51 -94 54 -150 3 -84 20 -104
139 -176 123 -74 153 -79 231 -38 53 28 66 31 152 31 87 0 99 -2 150 -31 73
-42 106 -37 227 35 121 71 137 90 137 170 1 55 6 70 53 150 41 71 62 95 96
116 77 44 86 64 89 203 3 146 -7 175 -83 225 -38 26 -62 54 -102 120 -47 79
-52 92 -53 149 0 81 -21 106 -151 179 -88 50 -105 56 -142 52 -24 -3 -62 -17
-85 -32 -37 -23 -51 -26 -135 -26 -85 0 -99 3 -148 30 -80 44 -106 40 -231
-32z m377 -143 c133 0 142 1 187 26 l47 27 63 -37 63 -36 6 -57 c5 -44 20 -81
68 -167 60 -107 108 -162 150 -176 19 -6 21 -14 21 -86 l0 -79 -48 -30 c-40
-25 -58 -47 -116 -147 -57 -98 -69 -128 -74 -176 l-5 -58 -59 -34 c-32 -19
-64 -35 -70 -35 -6 0 -27 10 -47 23 -32 20 -51 22 -176 25 -134 3 -142 2 -188
-22 -26 -14 -53 -26 -58 -26 -6 0 -39 17 -74 38 l-63 37 1 51 c1 45 -6 64 -68
174 -62 109 -75 126 -117 149 l-48 26 0 80 0 80 36 20 c47 25 69 53 138 174
52 91 59 108 58 156 l0 54 70 39 70 39 47 -26 c44 -25 53 -26 186 -26z"/>
<path d="M3795 3295 c-77 -31 -155 -111 -184 -190 -61 -161 13 -346 167 -422
50 -24 69 -28 147 -28 78 0 97 4 147 28 64 31 125 95 160 165 19 39 23 63 23
137 0 78 -4 97 -28 147 -78 158 -267 230 -432 163z m239 -158 c134 -103 78
-316 -88 -334 -121 -14 -213 75 -204 199 5 66 38 117 98 150 52 29 146 21 194
-15z"/>
<path d="M140 2567 c-74 -24 -140 -118 -140 -201 0 -111 72 -431 135 -601 192
-517 536 -924 1038 -1230 16 -9 16 -13 0 -55 -32 -88 -23 -103 176 -302 148
-149 181 -178 206 -178 24 0 59 30 217 187 168 167 188 191 188 220 0 42 -30
73 -72 73 -27 0 -52 -20 -183 -150 l-151 -150 -122 123 -122 122 380 380 380
380 122 -123 123 -122 -143 -143 c-130 -130 -142 -145 -142 -178 0 -45 25 -69
71 -69 31 0 51 16 212 178 162 163 177 180 177 212 0 33 -14 50 -172 207 -107
106 -183 174 -200 178 -30 8 -93 3 -120 -9 -14 -7 -31 12 -87 101 -39 59 -135
209 -214 333 -161 250 -188 279 -275 288 -122 11 -222 -77 -222 -195 0 -26 14
-124 30 -218 17 -93 30 -185 30 -205 0 -46 -21 -76 -65 -90 -29 -10 -41 -8
-81 9 -170 76 -365 264 -467 451 -55 101 -74 158 -133 395 -30 120 -62 234
-70 252 -25 51 -96 110 -155 127 -60 18 -99 19 -149 3z m148 -170 c18 -18 36
-74 81 -253 63 -246 80 -295 144 -419 110 -211 307 -405 526 -515 138 -70 287
-26 347 105 32 67 31 118 -6 325 -36 204 -37 226 -9 240 46 25 58 11 283 -341
l219 -341 -281 -281 -281 -281 -37 17 c-129 62 -352 233 -504 386 -236 239
-410 521 -514 832 -46 137 -88 327 -101 450 -6 61 -5 69 15 89 28 28 83 22
118 -13z"/>
<path d="M4822 2561 c-58 -20 -122 -76 -146 -126 -8 -17 -40 -130 -70 -250
-30 -121 -64 -245 -76 -275 -76 -195 -230 -385 -407 -503 -109 -73 -156 -91
-198 -77 -44 14 -65 44 -65 90 0 20 13 112 30 205 16 94 30 192 30 218 0 118
-100 206 -222 195 -87 -9 -114 -38 -275 -288 -79 -124 -175 -274 -214 -333
-56 -89 -73 -108 -87 -101 -27 12 -90 17 -120 9 -17 -4 -93 -72 -199 -178
-159 -158 -173 -174 -173 -207 0 -33 26 -61 453 -488 392 -391 456 -452 482
-452 25 0 57 28 206 178 199 199 208 214 176 302 -16 42 -16 46 0 55 88 53
255 170 268 187 8 13 15 33 15 46 0 29 -42 72 -71 72 -12 0 -79 -38 -148 -84
-69 -47 -143 -93 -164 -102 l-38 -18 -281 281 -281 281 219 341 c225 352 237
366 283 341 28 -14 27 -36 -9 -240 -37 -207 -38 -258 -6 -325 41 -89 119 -137
222 -138 51 0 74 7 135 38 213 108 407 300 516 510 64 124 81 173 144 419 63
251 74 272 141 282 28 5 40 2 58 -16 20 -20 22 -29 16 -84 -13 -118 -57 -312
-102 -446 -100 -301 -259 -569 -483 -813 -55 -60 -71 -84 -71 -107 0 -40 31
-70 74 -70 30 0 44 11 111 81 325 347 542 798 610 1271 21 143 15 193 -28 250
-61 79 -156 105 -255 69z m-1389 -1759 l377 -377 -123 -123 -122 -122 -380
380 -380 380 120 120 c66 66 122 120 125 120 3 0 175 -170 383 -378z"/>
</g>
</svg>
