<svg version="1.0" xmlns="http://www.w3.org/2000/svg"
 width="50px" height="50px" viewBox="0 0 512.000000 512.000000"
 preserveAspectRatio="xMidYMid meet">

<g transform="translate(0.000000,512.000000) scale(0.100000,-0.100000)"
fill="#FE495A" stroke="none">
<path d="M1409 5105 c-35 -19 -46 -53 -53 -155 -24 -351 -235 -665 -553 -824
-124 -62 -295 -106 -415 -106 -27 0 -62 -7 -77 -15 -50 -25 -54 -53 -49 -311
l6 -234 -95 0 c-105 0 -142 -13 -161 -55 -24 -51 -4 -112 43 -133 38 -17 4972
-17 5010 0 49 22 68 85 41 137 -21 40 -56 51 -160 51 l-94 0 6 234 c5 258 1
286 -49 311 -15 8 -50 15 -77 15 -67 0 -209 26 -285 51 -356 122 -608 416
-672 784 -8 48 -15 109 -15 136 0 60 -16 96 -51 115 -42 21 -2261 20 -2300 -1z
m2155 -197 c2 -7 9 -49 16 -93 53 -357 307 -697 648 -869 97 -49 229 -92 327
-106 44 -7 86 -14 93 -16 14 -4 16 -140 5 -281 l-6 -83 -99 0 -98 0 2 73 c3
105 -6 116 -137 161 -218 75 -376 175 -545 345 -163 164 -263 322 -335 533
-20 59 -46 115 -57 125 -18 16 -43 18 -200 21 -125 2 -190 0 -210 -9 -31 -13
-58 -54 -58 -89 0 -29 26 -76 47 -86 10 -5 78 -11 152 -14 l134 -5 17 -50
c106 -311 368 -627 675 -815 78 -48 215 -113 275 -131 32 -10 40 -17 40 -36
l0 -23 -1690 0 -1690 0 0 23 c0 19 8 26 43 36 128 38 370 183 504 302 198 176
367 422 443 644 l17 50 134 5 c74 3 142 9 152 14 21 10 47 57 47 86 0 35 -27
76 -58 89 -20 9 -85 11 -210 9 -157 -3 -182 -5 -200 -21 -11 -10 -37 -66 -57
-125 -73 -213 -171 -368 -340 -537 -168 -168 -323 -267 -538 -341 -133 -45
-142 -56 -139 -161 l2 -73 -98 0 -99 0 -6 83 c-11 141 -9 277 6 281 6 2 48 9
92 16 357 53 697 307 869 648 48 96 91 227 106 327 7 44 14 86 16 93 5 18
2003 18 2008 0z"/>
<path d="M2511 4706 c-87 -48 -50 -186 49 -186 51 0 100 49 100 99 0 75 -83
124 -149 87z"/>
<path d="M371 3047 c-47 -28 -63 -85 -37 -136 22 -42 55 -51 186 -51 71 0 130
-5 145 -12 29 -13 55 -55 55 -88 0 -51 -49 -100 -100 -100 -51 0 -100 -51
-100 -105 0 -36 59 -95 94 -95 57 0 106 -46 106 -100 0 -33 -26 -75 -55 -88
-15 -7 -74 -12 -145 -12 -131 0 -164 -9 -186 -51 -18 -35 -18 -63 1 -98 23
-46 57 -53 222 -49 130 3 153 6 190 26 66 35 110 78 140 140 24 48 28 70 28
137 0 72 -3 86 -33 138 l-32 57 32 58 c30 51 33 65 33 137 0 67 -4 89 -28 137
-30 62 -74 105 -140 140 -37 20 -59 23 -197 25 -117 3 -161 0 -179 -10z"/>
<path d="M1371 3046 c-45 -25 -50 -49 -51 -242 0 -204 10 -256 63 -326 18 -24
56 -56 85 -73 l51 -30 1 -123 0 -124 34 -34 c37 -37 70 -43 115 -20 42 22 51
55 51 184 l0 117 46 24 c59 31 109 90 134 158 17 47 20 78 20 238 0 200 -6
227 -51 251 -34 17 -60 18 -94 2 -48 -22 -55 -51 -55 -238 0 -187 -7 -216 -55
-238 -51 -23 -107 -7 -131 39 -10 21 -14 70 -14 198 0 111 -4 179 -12 196 -22
48 -88 68 -137 41z"/>
<path d="M2104 3026 l-34 -34 0 -432 0 -432 34 -34 34 -34 201 0 c220 0 247 5
269 55 23 51 7 107 -39 131 -20 10 -66 14 -164 14 l-135 0 0 100 0 100 65 0
c76 0 111 14 131 51 18 35 18 63 0 98 -20 37 -55 51 -131 51 l-65 0 0 100 0
100 135 0 c149 0 182 9 203 55 23 51 7 107 -39 131 -22 11 -75 14 -230 14
l-201 0 -34 -34z"/>
<path d="M2953 3042 c-100 -36 -171 -115 -192 -213 -16 -72 -15 -680 1 -714
22 -49 85 -68 137 -41 41 22 51 55 51 176 l0 110 100 0 100 0 0 -116 0 -116
34 -34 c38 -38 70 -43 115 -19 50 25 52 43 49 416 -3 335 -4 345 -26 395 -61
135 -229 206 -369 156z m146 -196 c41 -22 51 -55 51 -176 l0 -110 -100 0 -100
0 0 113 c1 120 9 150 51 173 31 17 64 17 98 0z"/>
<path d="M3535 3027 l-35 -35 0 -426 c0 -457 1 -466 51 -492 52 -27 115 -8
137 41 8 17 12 83 12 185 0 153 1 160 20 160 15 0 39 -40 114 -188 97 -192
113 -212 167 -212 50 0 99 49 99 100 0 11 -35 89 -77 174 l-77 154 51 49 c158
148 125 397 -65 490 -54 26 -66 28 -210 31 l-152 4 -35 -35z m314 -181 c28
-15 51 -53 51 -86 0 -33 -23 -71 -51 -86 -16 -8 -55 -14 -89 -14 l-60 0 0 100
0 100 60 0 c34 0 73 -6 89 -14z"/>
<path d="M4444 3040 c-71 -28 -128 -81 -161 -148 -39 -80 -40 -184 -1 -258 37
-71 103 -126 197 -164 44 -17 86 -39 94 -48 40 -44 27 -121 -24 -147 -37 -20
-54 -19 -118 5 -45 17 -59 19 -88 10 -64 -22 -88 -107 -43 -155 64 -68 226
-92 321 -48 114 52 173 145 173 273 0 62 -4 84 -26 126 -37 71 -103 126 -197
164 -44 17 -86 39 -94 48 -40 44 -27 121 24 147 37 20 54 19 118 -5 45 -17 59
-19 88 -10 64 22 88 107 43 155 -60 64 -214 92 -306 55z"/>
<path d="M51 1846 c-47 -26 -63 -84 -37 -135 25 -48 46 -51 326 -51 208 0 260
-3 260 -13 0 -30 194 -400 265 -506 178 -266 412 -507 660 -682 243 -171 562
-321 902 -424 137 -42 136 -42 319 16 259 82 505 192 709 317 331 201 647 518
851 853 60 98 214 405 214 427 0 9 59 12 260 12 280 0 301 3 326 51 27 52 8
115 -41 137 -40 19 -4980 17 -5014 -2z m1015 -258 c99 -197 250 -405 409 -563
239 -238 510 -406 880 -546 190 -72 220 -72 410 0 597 225 999 567 1275 1084
l52 97 109 0 108 0 -34 -77 c-80 -175 -219 -393 -354 -554 -296 -355 -724
-628 -1236 -788 -54 -17 -112 -31 -127 -31 -15 0 -94 22 -176 49 -582 193
-1024 514 -1331 966 -80 117 -157 253 -206 359 l-34 76 109 0 110 0 36 -72z
m2790 55 c-16 -41 -107 -184 -177 -277 -90 -119 -269 -297 -389 -385 -169
-125 -397 -245 -612 -319 l-117 -41 -83 28 c-276 95 -525 228 -718 386 -101
83 -245 233 -324 338 -68 91 -158 232 -172 270 -6 16 60 17 1296 17 1213 0
1302 -1 1296 -17z"/>
</g>
</svg>
