<svg width="397" height="93" viewBox="0 0 397 93" fill="none" xmlns="http://www.w3.org/2000/svg">
<path d="M81.7508 46.5C81.7508 64.7589 66.91 79.5607 48.6031 79.5607C42.0682 79.5607 35.9749 77.6746 30.8407 74.4184C30.5466 74.2319 30.1775 74.2046 29.8624 74.353L18.1382 79.873C17.4978 80.1745 17.3655 81.0269 17.8985 81.4925C26.1004 88.6575 36.8433 93 48.6031 93C74.3519 93 95.2254 72.1812 95.2254 46.5C95.2254 42.3538 94.6813 38.3343 93.6605 34.5088C93.4988 33.9028 92.8172 33.6114 92.2595 33.8981L81.7201 39.3157C81.3194 39.5217 81.1075 39.9701 81.1901 40.4131C81.5583 42.386 81.7508 44.4206 81.7508 46.5Z" fill="#007FFF"/>
<path d="M83.1253 15.2471C83.5596 15.724 83.4148 16.478 82.8426 16.7759L72.1946 22.3193C71.8145 22.5172 71.3516 22.4498 71.0358 22.1601C65.133 16.7454 57.2551 13.4393 48.6031 13.4393C30.2962 13.4393 15.4555 28.2411 15.4555 46.5C15.4555 53.5561 17.6718 60.096 21.4481 65.4648C21.7749 65.9295 21.6709 66.5756 21.2033 66.8983L11.7711 73.4055C11.326 73.7125 10.7165 73.6108 10.4055 73.1685C5.09659 65.6183 1.98081 56.4221 1.98081 46.5C1.98081 20.8188 22.8543 0 48.6031 0C62.2883 0 74.5963 5.88089 83.1253 15.2471Z" fill="#007FFF"/>
<path d="M60.3817 40.2503C60.6357 40.6881 60.5226 41.2465 60.1183 41.551L9.49972 79.6649C8.52038 80.4023 9.47214 81.9154 10.5609 81.3519L77.5664 46.6719C78.1444 46.3727 78.2872 45.6099 77.8564 45.122L74.8658 41.7345C74.439 41.2509 74.5747 40.4957 75.1433 40.1912L100.112 26.8146C100.602 26.5525 100.784 25.9422 100.518 25.4548L94.5154 14.4332C94.2516 13.9488 93.6453 13.7695 93.1604 14.0325L57.5626 33.341C57.0673 33.6097 56.8917 34.2344 57.1745 34.7219L60.3817 40.2503Z" fill="#007FFF"/>
<path d="M121.912 70V25.2H130.488L149.56 56.816H145.016L163.768 25.2H172.344L172.408 70H162.68L162.616 40.112H164.472L149.432 65.264H144.824L129.464 40.112H131.64V70H121.912ZM199.601 70.512C195.675 70.512 192.219 69.744 189.233 68.208C186.289 66.672 184.006 64.5813 182.385 61.936C180.763 59.248 179.953 56.1973 179.953 52.784C179.953 49.328 180.742 46.2773 182.321 43.632C183.942 40.944 186.139 38.8533 188.913 37.36C191.686 35.824 194.822 35.056 198.321 35.056C201.691 35.056 204.721 35.7813 207.409 37.232C210.139 38.64 212.294 40.688 213.873 43.376C215.451 46.0213 216.241 49.2 216.241 52.912C216.241 53.296 216.219 53.744 216.177 54.256C216.134 54.7253 216.091 55.1733 216.049 55.6H188.081V49.776H210.801L206.961 51.504C206.961 49.712 206.598 48.1547 205.873 46.832C205.147 45.5093 204.145 44.4853 202.865 43.76C201.585 42.992 200.091 42.608 198.385 42.608C196.678 42.608 195.163 42.992 193.841 43.76C192.561 44.4853 191.558 45.5307 190.833 46.896C190.107 48.2187 189.745 49.7973 189.745 51.632V53.168C189.745 55.0453 190.15 56.7093 190.961 58.16C191.814 59.568 192.987 60.656 194.481 61.424C196.017 62.1493 197.809 62.512 199.857 62.512C201.691 62.512 203.291 62.2347 204.657 61.68C206.065 61.1253 207.345 60.2933 208.497 59.184L213.809 64.944C212.23 66.736 210.246 68.1227 207.857 69.104C205.467 70.0427 202.715 70.512 199.601 70.512ZM223.894 70V35.568H251.478V43.76H231.574L233.814 41.584V70H223.894ZM277.377 70V63.28L276.737 61.808V49.776C276.737 47.6427 276.075 45.9787 274.753 44.784C273.473 43.5893 271.489 42.992 268.801 42.992C266.966 42.992 265.153 43.2907 263.361 43.888C261.611 44.4427 260.118 45.2107 258.881 46.192L255.297 39.216C257.174 37.8933 259.435 36.8693 262.081 36.144C264.726 35.4187 267.414 35.056 270.145 35.056C275.393 35.056 279.467 36.2933 282.369 38.768C285.27 41.2427 286.721 45.104 286.721 50.352V70H277.377ZM266.881 70.512C264.193 70.512 261.889 70.064 259.969 69.168C258.049 68.2293 256.577 66.9707 255.553 65.392C254.529 63.8133 254.017 62.0427 254.017 60.08C254.017 58.032 254.507 56.24 255.489 54.704C256.513 53.168 258.113 51.9733 260.289 51.12C262.465 50.224 265.302 49.776 268.801 49.776H277.953V55.6H269.889C267.542 55.6 265.921 55.984 265.025 56.752C264.171 57.52 263.745 58.48 263.745 59.632C263.745 60.912 264.235 61.936 265.217 62.704C266.241 63.4293 267.627 63.792 269.377 63.792C271.041 63.792 272.534 63.408 273.857 62.64C275.179 61.8293 276.139 60.656 276.737 59.12L278.273 63.728C277.547 65.9467 276.225 67.632 274.305 68.784C272.385 69.936 269.91 70.512 266.881 70.512ZM317.602 70.768C314.06 70.768 310.775 70.192 307.746 69.04C304.759 67.888 302.156 66.2667 299.938 64.176C297.762 62.0853 296.055 59.632 294.818 56.816C293.623 54 293.026 50.928 293.026 47.6C293.026 44.272 293.623 41.2 294.818 38.384C296.055 35.568 297.783 33.1147 300.002 31.024C302.22 28.9333 304.823 27.312 307.81 26.16C310.796 25.008 314.039 24.432 317.538 24.432C321.079 24.432 324.322 25.008 327.266 26.16C330.252 27.312 332.834 28.9333 335.01 31.024C337.228 33.1147 338.956 35.568 340.194 38.384C341.431 41.1573 342.05 44.2293 342.05 47.6C342.05 50.928 341.431 54.0213 340.194 56.88C338.956 59.696 337.228 62.1493 335.01 64.24C332.834 66.288 330.252 67.888 327.266 69.04C324.322 70.192 321.1 70.768 317.602 70.768ZM317.538 61.936C319.543 61.936 321.378 61.5947 323.042 60.912C324.748 60.2293 326.242 59.248 327.522 57.968C328.802 56.688 329.783 55.1733 330.466 53.424C331.191 51.6747 331.554 49.7333 331.554 47.6C331.554 45.4667 331.191 43.5253 330.466 41.776C329.783 40.0267 328.802 38.512 327.522 37.232C326.284 35.952 324.812 34.9707 323.106 34.288C321.399 33.6053 319.543 33.264 317.538 33.264C315.532 33.264 313.676 33.6053 311.97 34.288C310.306 34.9707 308.834 35.952 307.554 37.232C306.274 38.512 305.271 40.0267 304.546 41.776C303.863 43.5253 303.522 45.4667 303.522 47.6C303.522 49.6907 303.863 51.632 304.546 53.424C305.271 55.1733 306.252 56.688 307.49 57.968C308.77 59.248 310.263 60.2293 311.97 60.912C313.676 61.5947 315.532 61.936 317.538 61.936ZM349.269 70V35.568H359.701L372.693 59.12H368.533L382.421 35.568H391.765L391.893 70H382.869V45.808L384.405 46.832L372.565 66.672H368.341L356.437 46.128L358.293 45.68V70H349.269Z" fill="#0081C8"/>
</svg>
