<svg width="30" height="30" viewBox="0 0 30 30" fill="none" xmlns="http://www.w3.org/2000/svg">
<path fill-rule="evenodd" clip-rule="evenodd" d="M8.75 20H21.25C24.7018 20 27.5 22.7982 27.5 26.25C27.5 26.9404 26.9404 27.5 26.25 27.5C25.609 27.5 25.0806 27.0174 25.0084 26.3958L24.9936 26.0297C24.8838 24.1341 23.3659 22.6162 21.4703 22.5064L21.25 22.5H8.75C6.67893 22.5 5 24.1789 5 26.25C5 26.9404 4.44036 27.5 3.75 27.5C3.05964 27.5 2.5 26.9404 2.5 26.25C2.5 22.8891 5.15288 20.1477 8.47889 20.0058L8.75 20H21.25H8.75ZM15 2.5C19.1421 2.5 22.5 5.85786 22.5 10C22.5 14.1421 19.1421 17.5 15 17.5C10.8579 17.5 7.5 14.1421 7.5 10C7.5 5.85786 10.8579 2.5 15 2.5ZM15 5C12.2386 5 10 7.23858 10 10C10 12.7614 12.2386 15 15 15C17.7614 15 20 12.7614 20 10C20 7.23858 17.7614 5 15 5Z" fill="white"/>
</svg>
