<svg width="16" height="16" viewBox="0 0 16 16" fill="none" xmlns="http://www.w3.org/2000/svg">
<path d="M12.9506 7.6857C12.9506 10.5858 10.5996 12.9368 7.6995 12.9368C6.63243 12.9368 5.63969 12.6185 4.81105 12.0717L2.66152 13.0864C3.98103 14.3178 5.75226 15.0714 7.6995 15.0714C11.7785 15.0714 15.0852 11.7647 15.0852 7.6857C15.0852 6.96007 14.9806 6.25888 14.7855 5.5964L12.8382 6.60001C12.9119 6.95032 12.9506 7.31349 12.9506 7.6857Z" fill="white"/>
<path d="M13.3011 2.87189L11.3361 3.89759C10.3924 2.9915 9.11101 2.43459 7.6995 2.43459C4.79939 2.43459 2.44839 4.78559 2.44839 7.6857C2.44839 8.86574 2.83763 9.95486 3.49472 10.8317L1.73815 12.0467C0.842605 10.8246 0.313791 9.31691 0.313791 7.6857C0.313791 3.60668 3.62049 0.299988 7.6995 0.299988C9.93952 0.299988 11.9466 1.29719 13.3011 2.87189Z" fill="white"/>
<path d="M9.63593 6.8149L0 14.0895L12.4681 7.61943L11.7275 6.77839L16 4.48349L14.8971 2.45321L8.97553 5.67356L9.63593 6.8149Z" fill="white"/>
</svg>
