<svg width="15" height="15" viewBox="0 0 15 15" fill="none" xmlns="http://www.w3.org/2000/svg">
<path d="M3.01296 3.95285C2.71077 3.66955 2.23615 3.68486 1.95285 3.98705C1.66955 4.28923 1.68486 4.76386 1.98705 5.04715L3.01296 3.95285ZM7.61727 9.29744L7.10431 9.84459C7.39281 10.1151 7.84173 10.1151 8.13023 9.84459L7.61727 9.29744ZM13.2475 5.04715C13.5497 4.76386 13.565 4.28923 13.2817 3.98705C12.9984 3.68486 12.5238 3.66955 12.2216 3.95285L13.2475 5.04715ZM1.98705 5.04715L7.10431 9.84459L8.13023 8.75029L3.01296 3.95285L1.98705 5.04715ZM8.13023 9.84459L13.2475 5.04715L12.2216 3.95285L7.10431 8.75029L8.13023 9.84459Z" fill="#fff"/>
</svg>
