<svg width="15" height="15" viewBox="0 0 15 15" fill="none" xmlns="http://www.w3.org/2000/svg">
<path d="M11.987 11.0472C12.2892 11.3305 12.7639 11.3151 13.0472 11.013C13.3305 10.7108 13.3151 10.2361 13.013 9.95285L11.987 11.0472ZM7.38273 5.70256L7.89569 5.15541C7.60719 4.88494 7.15827 4.88494 6.86978 5.15541L7.38273 5.70256ZM1.75251 9.95285C1.45032 10.2361 1.43501 10.7108 1.71831 11.013C2.00161 11.3151 2.47623 11.3305 2.77842 11.0472L1.75251 9.95285ZM13.013 9.95285L7.89569 5.15541L6.86978 6.24971L11.987 11.0472L13.013 9.95285ZM6.86978 5.15541L1.75251 9.95285L2.77842 11.0472L7.89569 6.24971L6.86978 5.15541Z" fill="#fff"/>
</svg>
